<svg xmlns="http://www.w3.org/2000/svg" xmlns:xlink="http://www.w3.org/1999/xlink" width="820" height="711.3"><rect width="820" height="711.3" rx="5" ry="5" class="a"/><svg y="0%" x="0%"><circle cx="20" cy="20" r="6" fill="#ff5f58"/><circle cx="40" cy="20" r="6" fill="#ffbd2e"/><circle cx="60" cy="20" r="6" fill="#18c132"/></svg><svg height="651.3" viewBox="0 0 78 65.13" width="780" x="15" xmlns="http://www.w3.org/2000/svg" xmlns:xlink="http://www.w3.org/1999/xlink" y="50"><style>@keyframes i{0%{transform:translateX(0)}4.1%{transform:translateX(-78px)}4.4%{transform:translateX(-156px)}4.7%{transform:translateX(-234px)}5%{transform:translateX(-312px)}5.3%{transform:translateX(-390px)}5.6%{transform:translateX(-468px)}5.9%{transform:translateX(-546px)}6.3%{transform:translateX(-624px)}6.6%{transform:translateX(-702px)}6.9%{transform:translateX(-780px)}7.2%{transform:translateX(-858px)}7.5%{transform:translateX(-936px)}7.8%{transform:translateX(-1014px)}8.1%{transform:translateX(-1092px)}8.4%{transform:translateX(-1170px)}8.7%{transform:translateX(-1248px)}9%{transform:translateX(-1326px)}9.3%{transform:translateX(-1404px)}9.6%{transform:translateX(-1482px)}10%{transform:translateX(-1560px)}10.3%{transform:translateX(-1638px)}10.6%{transform:translateX(-1716px)}10.9%{transform:translateX(-1794px)}11.2%{transform:translateX(-1872px)}11.5%{transform:translateX(-1950px)}11.8%{transform:translateX(-2028px)}12.1%{transform:translateX(-2106px)}12.4%{transform:translateX(-2184px)}12.7%{transform:translateX(-2262px)}13%{transform:translateX(-2340px)}13.3%{transform:translateX(-2418px)}13.6%{transform:translateX(-2496px)}14%{transform:translateX(-2574px)}14.3%{transform:translateX(-2652px)}14.6%{transform:translateX(-2730px)}14.9%{transform:translateX(-2808px)}15.2%{transform:translateX(-2886px)}15.5%{transform:translateX(-2964px)}15.8%{transform:translateX(-3042px)}16.1%{transform:translateX(-3120px)}16.4%{transform:translateX(-3198px)}16.7%{transform:translateX(-3276px)}17%{transform:translateX(-3354px)}20.5%{transform:translateX(-3588px)}20.6%{transform:translateX(-3744px)}23.5%{transform:translateX(-3978px)}44%{transform:translateX(-4056px)}52%{transform:translateX(-4212px)}52.1%{transform:translateX(-4524px)}to{transform:translateX(-4602px)}}.a{fill:#282d35}.f{fill:#b9c0cb;white-space:pre}</style><g font-family="Monaco,Consolas,Menlo,'Bitstream Vera Sans Mono','Powerline Symbols',monospace" font-size="1.67"><defs><symbol id="1"><text y="1.67" class="f">npx</text></symbol><symbol id="2"><text y="1.67" class="f">npx</text><text x="4.008" y="1.67" class="f">next-leak</text></symbol><symbol id="3"><text y="1.67" class="f">npx</text><text x="4.008" y="1.67" class="f">next-leak</text><text x="14.028" y="1.67" class="f">.</text></symbol><symbol id="4"><text y="1.67" class="f">npx</text><text x="4.008" y="1.67" class="f">next-leak</text><text x="14.028" y="1.67" class="f">.</text><text x="16.032" y="1.67" class="f">--quick</text></symbol><symbol id="5"><text y="1.67" class="f">npx</text><text x="4.008" y="1.67" class="f">next-leak</text><text x="14.028" y="1.67" class="f">.</text><text x="16.032" y="1.67" class="f">--quick</text><text x="24.048" y="1.67" class="f">--routes</text></symbol><symbol id="6"><text y="1.67" class="f">npx</text><text x="4.008" y="1.67" class="f">next-leak</text><text x="14.028" y="1.67" class="f">.</text><text x="16.032" y="1.67" class="f">--quick</text><text x="24.048" y="1.67" class="f">--routes</text><text x="33.066" y="1.67" class="f">/api/heap</text></symbol><symbol id="7"><text y="1.67" class="f">⠙</text></symbol><symbol id="8"><text y="1.67" class="f">·</text><text x="2.004" y="1.67" class="f">module</text><text x="9.018" y="1.67" class="f">registry:</text><text x="19.038" y="1.67" class="f">0</text><text x="21.042" y="1.67" class="f">modules</text><text x="29.058" y="1.67" class="f">·</text><text x="31.062" y="1.67" class="f">next</text><text x="36.072" y="1.67" class="f">16.3.0-canary.93</text></symbol><symbol id="9"><text y="1.67" class="f">·</text><text x="2.004" y="1.67" class="f">1</text><text x="4.008" y="1.67" class="f">routes</text><text x="11.022" y="1.67" class="f">discovered</text><text x="22.044" y="1.67" class="f">·</text><text x="24.048" y="1.67" class="f">estimated</text><text x="34.068" y="1.67" class="f">≈</text><text x="36.072" y="1.67" class="f">26s–75s</text></symbol><symbol id="10"><text y="1.67" class="f">·</text><text x="2.004" y="1.67" class="f">measuring</text><text x="12.024" y="1.67" class="f">/api/heap</text><text x="22.044" y="1.67" class="f">(1/1)</text><text x="28.056" y="1.67" class="f">as</text><text x="31.062" y="1.67" class="f">/api/heap?timeouts=500</text></symbol><symbol id="11"><text y="1.67" class="f">·</text><text x="2.004" y="1.67" class="f">diffing</text><text x="10.02" y="1.67" class="f">snapshots</text><text x="20.04" y="1.67" class="f">for</text><text x="24.048" y="1.67" class="f">/api/heap</text></symbol><symbol id="12"><text y="1.67" class="f">next-leak</text><text x="10.02" y="1.67" class="f">—</text><text x="12.024" y="1.67" class="f">/private/tmp/my-app</text></symbol><symbol id="13"><text x="2.004" y="1.67" class="f">✖</text><text x="4.008" y="1.67" class="f">/api/heap</text><text x="15.03" y="1.67" class="f">leak</text><text x="21.042" y="1.67" class="f">(+4.14</text><text x="28.056" y="1.67" class="f">MB/1000</text><text x="36.072" y="1.67" class="f">req)</text><text x="42.084" y="1.67" class="f">heap</text><text x="47.094" y="1.67" class="f">27.1</text><text x="52.104" y="1.67" class="f">MB</text><text x="55.11" y="1.67" class="f">→</text><text x="57.114" y="1.67" class="f">35.1</text><text x="62.124" y="1.67" class="f">MB</text><text x="65.13" y="1.67" class="f">→</text><text x="67.134" y="1.67" class="f">48.4</text><text x="72.144" y="1.67" class="f">MB</text><text x="75.15" y="1.67" class="f">→</text><text x="77.154" y="1.67" class="f">5</text></symbol><symbol id="14"><text y="1.67" class="f">9.8</text><text x="4.008" y="1.67" class="f">MB</text><text x="7.014" y="1.67" class="f">→</text><text x="9.018" y="1.67" class="f">59.9</text><text x="14.028" y="1.67" class="f">MB</text></symbol><symbol id="15"><text x="6.012" y="1.67" class="f">⚠</text><text x="8.016" y="1.67" class="f">low</text><text x="12.024" y="1.67" class="f">confidence:</text><text x="24.048" y="1.67" class="f">one</text><text x="28.056" y="1.67" class="f">cycle</text><text x="34.068" y="1.67" class="f">grew</text><text x="39.078" y="1.67" class="f">13.26</text><text x="45.09" y="1.67" class="f">MB</text><text x="48.096" y="1.67" class="f">and</text><text x="52.104" y="1.67" class="f">another</text><text x="60.12" y="1.67" class="f">0.10</text><text x="65.13" y="1.67" class="f">MB</text><text x="68.136" y="1.67" class="f">—</text><text x="70.14" y="1.67" class="f">the</text><text x="74.148" y="1.67" class="f">mean</text></symbol><symbol id="16"><text x="1.002" y="1.67" class="f">of</text><text x="4.008" y="1.67" class="f">8.28</text><text x="9.018" y="1.67" class="f">MB/cycle</text><text x="18.036" y="1.67" class="f">summarizes</text><text x="29.058" y="1.67" class="f">an</text><text x="32.064" y="1.67" class="f">uneven</text><text x="39.078" y="1.67" class="f">series;</text><text x="47.094" y="1.67" class="f">measure</text><text x="55.11" y="1.67" class="f">more</text><text x="60.12" y="1.67" class="f">cycles</text><text x="67.134" y="1.67" class="f">before</text><text x="74.148" y="1.67" class="f">quot</text></symbol><symbol id="17"><text y="1.67" class="f">ing</text><text x="4.008" y="1.67" class="f">it</text></symbol><symbol id="18"><text x="6.012" y="1.67" class="f">↳</text><text x="8.016" y="1.67" class="f">grown</text><text x="14.028" y="1.67" class="f">[object]</text><text x="23.046" y="1.67" class="f">system</text><text x="30.06" y="1.67" class="f">/</text><text x="32.064" y="1.67" class="f">Context</text><text x="40.08" y="1.67" class="f">32.7</text><text x="45.09" y="1.67" class="f">MB</text><text x="48.096" y="1.67" class="f">—</text><text x="50.1" y="1.67" class="f">webSetTimeoutPolyfill#closur</text></symbol><symbol id="19"><text y="1.67" class="f">e[.context]</text><text x="12.024" y="1.67" class="f">&lt;-</text><text x="15.03" y="1.67" class="f">#code[.2]</text><text x="25.05" y="1.67" class="f">&lt;-</text><text x="28.056" y="1.67" class="f">(code)#code[.instruction_stream]</text><text x="61.122" y="1.67" class="f">&lt;-</text><text x="64.128" y="1.67" class="f">system</text><text x="71.142" y="1.67" class="f">/</text><text x="73.146" y="1.67" class="f">CodeW</text></symbol><symbol id="20"><text y="1.67" class="f">rapper#hidden[.0]</text></symbol><symbol id="21"><text x="6.012" y="1.67" class="f">↳</text><text x="8.016" y="1.67" class="f">grown</text><text x="14.028" y="1.67" class="f">[object]</text><text x="23.046" y="1.67" class="f">Object</text><text x="30.06" y="1.67" class="f">32.7</text><text x="35.07" y="1.67" class="f">MB</text><text x="38.076" y="1.67" class="f">—</text><text x="40.08" y="1.67" class="f">Module#object[.&lt;symbol</text><text x="63.126" y="1.67" class="f">node:module_exp</text></symbol><symbol id="22"><text y="1.67" class="f">ort&gt;]</text><text x="6.012" y="1.67" class="f">&lt;-</text><text x="9.018" y="1.67" class="f">(object</text><text x="17.034" y="1.67" class="f">properties)#array[.1780]</text><text x="42.084" y="1.67" class="f">&lt;-</text><text x="45.09" y="1.67" class="f">Object#object[.properties]</text><text x="72.144" y="1.67" class="f">&lt;-</text><text x="75.15" y="1.67" class="f">sys</text></symbol><symbol id="23"><text y="1.67" class="f">tem</text><text x="4.008" y="1.67" class="f">/</text><text x="6.012" y="1.67" class="f">PropertyArray#hidden[.3]</text><text x="31.062" y="1.67" class="f">&lt;-</text><text x="34.068" y="1.67" class="f">require#closure[.properties]</text><text x="63.126" y="1.67" class="f">&lt;-</text><text x="66.132" y="1.67" class="f">system</text><text x="73.146" y="1.67" class="f">/</text><text x="75.15" y="1.67" class="f">Con</text></symbol><symbol id="24"><text y="1.67" class="f">text#object[.require]</text><text x="22.044" y="1.67" class="f">&lt;-</text><text x="25.05" y="1.67" class="f">system</text><text x="32.064" y="1.67" class="f">/</text><text x="34.068" y="1.67" class="f">Context#object[.previous]</text></symbol><symbol id="25"><text x="6.012" y="1.67" class="f">↳</text><text x="8.016" y="1.67" class="f">grown</text><text x="14.028" y="1.67" class="f">[object]</text><text x="23.046" y="1.67" class="f">Array</text><text x="29.058" y="1.67" class="f">32.7</text><text x="34.068" y="1.67" class="f">MB</text><text x="37.074" y="1.67" class="f">—</text><text x="39.078" y="1.67" class="f">TimeoutsManager#object[.resources]</text><text x="74.148" y="1.67" class="f">&lt;-</text><text x="77.154" y="1.67" class="f">s</text></symbol><symbol id="26"><text y="1.67" class="f">ystem</text><text x="6.012" y="1.67" class="f">/</text><text x="8.016" y="1.67" class="f">Context#object[.timeoutsManager]</text><text x="41.082" y="1.67" class="f">&lt;-</text><text x="44.088" y="1.67" class="f">webSetTimeoutPolyfill#closure[.con</text></symbol><symbol id="27"><text y="1.67" class="f">text]</text><text x="6.012" y="1.67" class="f">&lt;-</text><text x="9.018" y="1.67" class="f">#code[.2]</text><text x="19.038" y="1.67" class="f">&lt;-</text><text x="22.044" y="1.67" class="f">(code)#code[.instruction_stream]</text><text x="55.11" y="1.67" class="f">&lt;-</text><text x="58.116" y="1.67" class="f">system</text><text x="65.13" y="1.67" class="f">/</text><text x="67.134" y="1.67" class="f">CodeWrapper</text></symbol><symbol id="28"><text y="1.67" class="f">#hidden[.0]</text></symbol><symbol id="29"><text y="1.67" class="f">snapshots</text><text x="10.02" y="1.67" class="f">and</text><text x="14.028" y="1.67" class="f">run.json:</text><text x="24.048" y="1.67" class="f">/private/tmp/my-app/.next-leak/2026-07-22T16-01-16-900</text></symbol><symbol id="30"><text y="1.67" class="f">Z</text></symbol><symbol id="31"><text y="1.67" class="f">report:</text><text x="8.016" y="1.67" class="f">/private/tmp/my-app/.next-leak/2026-07-22T16-01-16-900Z/report.html</text></symbol><symbol id="a"><path fill="transparent" d="M0 0h78v31H0z"/></symbol><symbol id="b"><path fill="#6f7683" d="M0 0h1.102v2.171H0z"/></symbol></defs><path class="a" d="M0 0h78v65.13H0z"/><g style="animation-duration:14.623s;animation-iteration-count:infinite;animation-name:i;animation-timing-function:steps(1,end)"><svg width="4680"><svg><use xlink:href="#a"/><use xlink:href="#b" x="-.004"/></svg><svg x="78"><use xlink:href="#a"/><use xlink:href="#b" x=".996"/><text y="1.67" class="f">n</text></svg><svg x="156"><use xlink:href="#a"/><use xlink:href="#b" x="1.996"/><text y="1.67" class="f">np</text></svg><svg x="234"><use xlink:href="#a"/><use xlink:href="#b" x="2.996"/><use xlink:href="#1"/></svg><svg x="312"><use xlink:href="#a"/><use xlink:href="#b" x="3.996"/><use xlink:href="#1"/></svg><svg x="390"><use xlink:href="#a"/><use xlink:href="#b" x="4.996"/><text y="1.67" class="f">npx</text><text x="4.008" y="1.67" class="f">n</text></svg><svg x="468"><use xlink:href="#a"/><use xlink:href="#b" x="5.996"/><text y="1.67" class="f">npx</text><text x="4.008" y="1.67" class="f">ne</text></svg><svg x="546"><use xlink:href="#a"/><use xlink:href="#b" x="6.996"/><text y="1.67" class="f">npx</text><text x="4.008" y="1.67" class="f">nex</text></svg><svg x="624"><use xlink:href="#a"/><use xlink:href="#b" x="7.996"/><text y="1.67" class="f">npx</text><text x="4.008" y="1.67" class="f">next</text></svg><svg x="702"><use xlink:href="#a"/><use xlink:href="#b" x="8.996"/><text y="1.67" class="f">npx</text><text x="4.008" y="1.67" class="f">next-</text></svg><svg x="780"><use xlink:href="#a"/><use xlink:href="#b" x="9.996"/><text y="1.67" class="f">npx</text><text x="4.008" y="1.67" class="f">next-l</text></svg><svg x="858"><use xlink:href="#a"/><use xlink:href="#b" x="10.996"/><text y="1.67" class="f">npx</text><text x="4.008" y="1.67" class="f">next-le</text></svg><svg x="936"><use xlink:href="#a"/><use xlink:href="#b" x="11.996"/><text y="1.67" class="f">npx</text><text x="4.008" y="1.67" class="f">next-lea</text></svg><svg x="1014"><use xlink:href="#a"/><use xlink:href="#b" x="12.996"/><use xlink:href="#2"/></svg><svg x="1092"><use xlink:href="#a"/><use xlink:href="#b" x="13.996"/><use xlink:href="#2"/></svg><svg x="1170"><use xlink:href="#a"/><use xlink:href="#b" x="14.996"/><use xlink:href="#3"/></svg><svg x="1248"><use xlink:href="#a"/><use xlink:href="#b" x="15.996"/><use xlink:href="#3"/></svg><svg x="1326"><use xlink:href="#a"/><use xlink:href="#b" x="16.996"/><text y="1.67" class="f">npx</text><text x="4.008" y="1.67" class="f">next-leak</text><text x="14.028" y="1.67" class="f">.</text><text x="16.032" y="1.67" class="f">-</text></svg><svg x="1404"><use xlink:href="#a"/><use xlink:href="#b" x="17.996"/><text y="1.67" class="f">npx</text><text x="4.008" y="1.67" class="f">next-leak</text><text x="14.028" y="1.67" class="f">.</text><text x="16.032" y="1.67" class="f">--</text></svg><svg x="1482"><use xlink:href="#a"/><use xlink:href="#b" x="18.996"/><text y="1.67" class="f">npx</text><text x="4.008" y="1.67" class="f">next-leak</text><text x="14.028" y="1.67" class="f">.</text><text x="16.032" y="1.67" class="f">--q</text></svg><svg x="1560"><use xlink:href="#a"/><use xlink:href="#b" x="19.996"/><text y="1.67" class="f">npx</text><text x="4.008" y="1.67" class="f">next-leak</text><text x="14.028" y="1.67" class="f">.</text><text x="16.032" y="1.67" class="f">--qu</text></svg><svg x="1638"><use xlink:href="#a"/><use xlink:href="#b" x="20.996"/><text y="1.67" class="f">npx</text><text x="4.008" y="1.67" class="f">next-leak</text><text x="14.028" y="1.67" class="f">.</text><text x="16.032" y="1.67" class="f">--qui</text></svg><svg x="1716"><use xlink:href="#a"/><use xlink:href="#b" x="21.996"/><text y="1.67" class="f">npx</text><text x="4.008" y="1.67" class="f">next-leak</text><text x="14.028" y="1.67" class="f">.</text><text x="16.032" y="1.67" class="f">--quic</text></svg><svg x="1794"><use xlink:href="#a"/><use xlink:href="#b" x="22.996"/><use xlink:href="#4"/></svg><svg x="1872"><use xlink:href="#a"/><use xlink:href="#b" x="23.996"/><use xlink:href="#4"/></svg><svg x="1950"><use xlink:href="#a"/><use xlink:href="#b" x="24.996"/><text y="1.67" class="f">npx</text><text x="4.008" y="1.67" class="f">next-leak</text><text x="14.028" y="1.67" class="f">.</text><text x="16.032" y="1.67" class="f">--quick</text><text x="24.048" y="1.67" class="f">-</text></svg><svg x="2028"><use xlink:href="#a"/><use xlink:href="#b" x="25.996"/><text y="1.67" class="f">npx</text><text x="4.008" y="1.67" class="f">next-leak</text><text x="14.028" y="1.67" class="f">.</text><text x="16.032" y="1.67" class="f">--quick</text><text x="24.048" y="1.67" class="f">--</text></svg><svg x="2106"><use xlink:href="#a"/><use xlink:href="#b" x="26.996"/><text y="1.67" class="f">npx</text><text x="4.008" y="1.67" class="f">next-leak</text><text x="14.028" y="1.67" class="f">.</text><text x="16.032" y="1.67" class="f">--quick</text><text x="24.048" y="1.67" class="f">--r</text></svg><svg x="2184"><use xlink:href="#a"/><use xlink:href="#b" x="27.996"/><text y="1.67" class="f">npx</text><text x="4.008" y="1.67" class="f">next-leak</text><text x="14.028" y="1.67" class="f">.</text><text x="16.032" y="1.67" class="f">--quick</text><text x="24.048" y="1.67" class="f">--ro</text></svg><svg x="2262"><use xlink:href="#a"/><use xlink:href="#b" x="28.996"/><text y="1.67" class="f">npx</text><text x="4.008" y="1.67" class="f">next-leak</text><text x="14.028" y="1.67" class="f">.</text><text x="16.032" y="1.67" class="f">--quick</text><text x="24.048" y="1.67" class="f">--rou</text></svg><svg x="2340"><use xlink:href="#a"/><use xlink:href="#b" x="29.996"/><text y="1.67" class="f">npx</text><text x="4.008" y="1.67" class="f">next-leak</text><text x="14.028" y="1.67" class="f">.</text><text x="16.032" y="1.67" class="f">--quick</text><text x="24.048" y="1.67" class="f">--rout</text></svg><svg x="2418"><use xlink:href="#a"/><use xlink:href="#b" x="30.996"/><text y="1.67" class="f">npx</text><text x="4.008" y="1.67" class="f">next-leak</text><text x="14.028" y="1.67" class="f">.</text><text x="16.032" y="1.67" class="f">--quick</text><text x="24.048" y="1.67" class="f">--route</text></svg><svg x="2496"><use xlink:href="#a"/><use xlink:href="#b" x="31.996"/><use xlink:href="#5"/></svg><svg x="2574"><use xlink:href="#a"/><use xlink:href="#b" x="32.996"/><use xlink:href="#5"/></svg><svg x="2652"><use xlink:href="#a"/><use xlink:href="#b" x="33.996"/><text y="1.67" class="f">npx</text><text x="4.008" y="1.67" class="f">next-leak</text><text x="14.028" y="1.67" class="f">.</text><text x="16.032" y="1.67" class="f">--quick</text><text x="24.048" y="1.67" class="f">--routes</text><text x="33.066" y="1.67" class="f">/</text></svg><svg x="2730"><use xlink:href="#a"/><use xlink:href="#b" x="34.996"/><text y="1.67" class="f">npx</text><text x="4.008" y="1.67" class="f">next-leak</text><text x="14.028" y="1.67" class="f">.</text><text x="16.032" y="1.67" class="f">--quick</text><text x="24.048" y="1.67" class="f">--routes</text><text x="33.066" y="1.67" class="f">/a</text></svg><svg x="2808"><use xlink:href="#a"/><use xlink:href="#b" x="35.996"/><text y="1.67" class="f">npx</text><text x="4.008" y="1.67" class="f">next-leak</text><text x="14.028" y="1.67" class="f">.</text><text x="16.032" y="1.67" class="f">--quick</text><text x="24.048" y="1.67" class="f">--routes</text><text x="33.066" y="1.67" class="f">/ap</text></svg><svg x="2886"><use xlink:href="#a"/><use xlink:href="#b" x="36.996"/><text y="1.67" class="f">npx</text><text x="4.008" y="1.67" class="f">next-leak</text><text x="14.028" y="1.67" class="f">.</text><text x="16.032" y="1.67" class="f">--quick</text><text x="24.048" y="1.67" class="f">--routes</text><text x="33.066" y="1.67" class="f">/api</text></svg><svg x="2964"><use xlink:href="#a"/><use xlink:href="#b" x="37.996"/><text y="1.67" class="f">npx</text><text x="4.008" y="1.67" class="f">next-leak</text><text x="14.028" y="1.67" class="f">.</text><text x="16.032" y="1.67" class="f">--quick</text><text x="24.048" y="1.67" class="f">--routes</text><text x="33.066" y="1.67" class="f">/api/</text></svg><svg x="3042"><use xlink:href="#a"/><use xlink:href="#b" x="38.996"/><text y="1.67" class="f">npx</text><text x="4.008" y="1.67" class="f">next-leak</text><text x="14.028" y="1.67" class="f">.</text><text x="16.032" y="1.67" class="f">--quick</text><text x="24.048" y="1.67" class="f">--routes</text><text x="33.066" y="1.67" class="f">/api/h</text></svg><svg x="3120"><use xlink:href="#a"/><use xlink:href="#b" x="39.996"/><text y="1.67" class="f">npx</text><text x="4.008" y="1.67" class="f">next-leak</text><text x="14.028" y="1.67" class="f">.</text><text x="16.032" y="1.67" class="f">--quick</text><text x="24.048" y="1.67" class="f">--routes</text><text x="33.066" y="1.67" class="f">/api/he</text></svg><svg x="3198"><use xlink:href="#a"/><use xlink:href="#b" x="40.996"/><text y="1.67" class="f">npx</text><text x="4.008" y="1.67" class="f">next-leak</text><text x="14.028" y="1.67" class="f">.</text><text x="16.032" y="1.67" class="f">--quick</text><text x="24.048" y="1.67" class="f">--routes</text><text x="33.066" y="1.67" class="f">/api/hea</text></svg><svg x="3276"><use xlink:href="#a"/><use xlink:href="#b" x="41.996"/><use xlink:href="#6"/></svg><svg x="3354"><use xlink:href="#a"/><use xlink:href="#b" x="-.004" y="2.146"/><use xlink:href="#6"/></svg><svg x="3432"><use xlink:href="#a"/><use xlink:href="#b" x="-.004" y="2.146"/><use xlink:href="#6"/></svg><svg x="3510"><use xlink:href="#a"/><use xlink:href="#b" x="-.004" y="2.146"/><use xlink:href="#6"/></svg><svg x="3588"><use xlink:href="#a"/><use xlink:href="#b" x=".996" y="2.146"/><use xlink:href="#6"/><use xlink:href="#7" y="2.171"/></svg><svg x="3666"><use xlink:href="#a"/><use xlink:href="#b" x="-.004" y="2.146"/><use xlink:href="#6"/><use xlink:href="#7" y="2.171"/></svg><svg x="3744"><use xlink:href="#a"/><use xlink:href="#b" x="-.004" y="2.146"/><use xlink:href="#6"/></svg><svg x="3822"><use xlink:href="#a"/><use xlink:href="#b" x="-.004" y="4.317"/><use xlink:href="#6"/><use xlink:href="#8" y="2.171"/></svg><svg x="3900"><use xlink:href="#a"/><use xlink:href="#b" x="-.004" y="6.488"/><use xlink:href="#6"/><use xlink:href="#8" y="2.171"/><use xlink:href="#9" y="4.342"/></svg><svg x="3978"><use xlink:href="#a"/><use xlink:href="#b" x="-.004" y="8.659"/><use xlink:href="#6"/><use xlink:href="#8" y="2.171"/><use xlink:href="#9" y="4.342"/><use xlink:href="#10" y="6.513"/></svg><svg x="4056"><use xlink:href="#a"/><use xlink:href="#b" x="-.004" y="10.83"/><use xlink:href="#6"/><use xlink:href="#8" y="2.171"/><use xlink:href="#9" y="4.342"/><use xlink:href="#10" y="6.513"/><use xlink:href="#11" y="8.684"/></svg><svg x="4134"><use xlink:href="#a"/><use xlink:href="#b" x="74.996" y="45.566"/><use xlink:href="#6"/><use xlink:href="#8" y="2.171"/><use xlink:href="#9" y="4.342"/><use xlink:href="#10" y="6.513"/><use xlink:href="#11" y="8.684"/><use xlink:href="#12" y="10.855"/><use xlink:href="#13" y="15.197"/><use xlink:href="#14" y="17.368"/><use xlink:href="#15" y="19.539"/><use xlink:href="#16" y="21.71"/><use xlink:href="#17" y="23.881"/><use xlink:href="#18" y="26.052"/><use xlink:href="#19" y="28.223"/><use xlink:href="#20" y="30.394"/><use xlink:href="#21" y="32.565"/><use xlink:href="#22" y="34.736"/><use xlink:href="#23" y="36.907"/><use xlink:href="#24" y="39.078"/><use xlink:href="#25" y="41.249"/><use xlink:href="#26" y="43.42"/><text y="47.261" class="f">text]</text><text x="6.012" y="47.261" class="f">&lt;-</text><text x="9.018" y="47.261" class="f">#code[.2]</text><text x="19.038" y="47.261" class="f">&lt;-</text><text x="22.044" y="47.261" class="f">(code)#code[.instruction_stream]</text><text x="55.11" y="47.261" class="f">&lt;-</text><text x="58.116" y="47.261" class="f">system</text><text x="65.13" y="47.261" class="f">/</text><text x="67.134" y="47.261" class="f">CodeWrap</text></svg><svg x="4212"><use xlink:href="#a"/><use xlink:href="#b" x="-.004" y="58.592"/><use xlink:href="#6"/><use xlink:href="#8" y="2.171"/><use xlink:href="#9" y="4.342"/><use xlink:href="#10" y="6.513"/><use xlink:href="#11" y="8.684"/><use xlink:href="#12" y="10.855"/><use xlink:href="#13" y="15.197"/><use xlink:href="#14" y="17.368"/><use xlink:href="#15" y="19.539"/><use xlink:href="#16" y="21.71"/><use xlink:href="#17" y="23.881"/><use xlink:href="#18" y="26.052"/><use xlink:href="#19" y="28.223"/><use xlink:href="#20" y="30.394"/><use xlink:href="#21" y="32.565"/><use xlink:href="#22" y="34.736"/><use xlink:href="#23" y="36.907"/><use xlink:href="#24" y="39.078"/><use xlink:href="#25" y="41.249"/><use xlink:href="#26" y="43.42"/><use xlink:href="#27" y="45.591"/><use xlink:href="#28" y="47.762"/><use xlink:href="#29" y="52.104"/><use xlink:href="#30" y="54.275"/><use xlink:href="#31" y="56.446"/></svg><svg x="4290"><use xlink:href="#a"/><use xlink:href="#b" x="-.004" y="58.592"/><use xlink:href="#6"/><use xlink:href="#8" y="2.171"/><use xlink:href="#9" y="4.342"/><use xlink:href="#10" y="6.513"/><use xlink:href="#11" y="8.684"/><use xlink:href="#12" y="10.855"/><use xlink:href="#13" y="15.197"/><use xlink:href="#14" y="17.368"/><use xlink:href="#15" y="19.539"/><use xlink:href="#16" y="21.71"/><use xlink:href="#17" y="23.881"/><use xlink:href="#18" y="26.052"/><use xlink:href="#19" y="28.223"/><use xlink:href="#20" y="30.394"/><use xlink:href="#21" y="32.565"/><use xlink:href="#22" y="34.736"/><use xlink:href="#23" y="36.907"/><use xlink:href="#24" y="39.078"/><use xlink:href="#25" y="41.249"/><use xlink:href="#26" y="43.42"/><use xlink:href="#27" y="45.591"/><use xlink:href="#28" y="47.762"/><use xlink:href="#29" y="52.104"/><use xlink:href="#30" y="54.275"/><use xlink:href="#31" y="56.446"/></svg><svg x="4368"><use xlink:href="#a"/><use xlink:href="#b" x=".996" y="58.592"/><use xlink:href="#6"/><use xlink:href="#8" y="2.171"/><use xlink:href="#9" y="4.342"/><use xlink:href="#10" y="6.513"/><use xlink:href="#11" y="8.684"/><use xlink:href="#12" y="10.855"/><use xlink:href="#13" y="15.197"/><use xlink:href="#14" y="17.368"/><use xlink:href="#15" y="19.539"/><use xlink:href="#16" y="21.71"/><use xlink:href="#17" y="23.881"/><use xlink:href="#18" y="26.052"/><use xlink:href="#19" y="28.223"/><use xlink:href="#20" y="30.394"/><use xlink:href="#21" y="32.565"/><use xlink:href="#22" y="34.736"/><use xlink:href="#23" y="36.907"/><use xlink:href="#24" y="39.078"/><use xlink:href="#25" y="41.249"/><use xlink:href="#26" y="43.42"/><use xlink:href="#27" y="45.591"/><use xlink:href="#28" y="47.762"/><use xlink:href="#29" y="52.104"/><use xlink:href="#30" y="54.275"/><use xlink:href="#31" y="56.446"/><use xlink:href="#7" y="58.617"/></svg><svg x="4446"><use xlink:href="#a"/><use xlink:href="#b" x="-.004" y="58.592"/><use xlink:href="#6"/><use xlink:href="#8" y="2.171"/><use xlink:href="#9" y="4.342"/><use xlink:href="#10" y="6.513"/><use xlink:href="#11" y="8.684"/><use xlink:href="#12" y="10.855"/><use xlink:href="#13" y="15.197"/><use xlink:href="#14" y="17.368"/><use xlink:href="#15" y="19.539"/><use xlink:href="#16" y="21.71"/><use xlink:href="#17" y="23.881"/><use xlink:href="#18" y="26.052"/><use xlink:href="#19" y="28.223"/><use xlink:href="#20" y="30.394"/><use xlink:href="#21" y="32.565"/><use xlink:href="#22" y="34.736"/><use xlink:href="#23" y="36.907"/><use xlink:href="#24" y="39.078"/><use xlink:href="#25" y="41.249"/><use xlink:href="#26" y="43.42"/><use xlink:href="#27" y="45.591"/><use xlink:href="#28" y="47.762"/><use xlink:href="#29" y="52.104"/><use xlink:href="#30" y="54.275"/><use xlink:href="#31" y="56.446"/><use xlink:href="#7" y="58.617"/></svg><svg x="4524"><use xlink:href="#a"/><use xlink:href="#b" x="-.004" y="58.592"/><use xlink:href="#6"/><use xlink:href="#8" y="2.171"/><use xlink:href="#9" y="4.342"/><use xlink:href="#10" y="6.513"/><use xlink:href="#11" y="8.684"/><use xlink:href="#12" y="10.855"/><use xlink:href="#13" y="15.197"/><use xlink:href="#14" y="17.368"/><use xlink:href="#15" y="19.539"/><use xlink:href="#16" y="21.71"/><use xlink:href="#17" y="23.881"/><use xlink:href="#18" y="26.052"/><use xlink:href="#19" y="28.223"/><use xlink:href="#20" y="30.394"/><use xlink:href="#21" y="32.565"/><use xlink:href="#22" y="34.736"/><use xlink:href="#23" y="36.907"/><use xlink:href="#24" y="39.078"/><use xlink:href="#25" y="41.249"/><use xlink:href="#26" y="43.42"/><use xlink:href="#27" y="45.591"/><use xlink:href="#28" y="47.762"/><use xlink:href="#29" y="52.104"/><use xlink:href="#30" y="54.275"/><use xlink:href="#31" y="56.446"/></svg><svg x="4602"><use xlink:href="#a"/><use xlink:href="#b" x="-.004" y="58.592"/><use xlink:href="#6"/><use xlink:href="#8" y="2.171"/><use xlink:href="#9" y="4.342"/><use xlink:href="#10" y="6.513"/><use xlink:href="#11" y="8.684"/><use xlink:href="#12" y="10.855"/><use xlink:href="#13" y="15.197"/><use xlink:href="#14" y="17.368"/><use xlink:href="#15" y="19.539"/><use xlink:href="#16" y="21.71"/><use xlink:href="#17" y="23.881"/><use xlink:href="#18" y="26.052"/><use xlink:href="#19" y="28.223"/><use xlink:href="#20" y="30.394"/><use xlink:href="#21" y="32.565"/><use xlink:href="#22" y="34.736"/><use xlink:href="#23" y="36.907"/><use xlink:href="#24" y="39.078"/><use xlink:href="#25" y="41.249"/><use xlink:href="#26" y="43.42"/><use xlink:href="#27" y="45.591"/><use xlink:href="#28" y="47.762"/><use xlink:href="#29" y="52.104"/><use xlink:href="#30" y="54.275"/><use xlink:href="#31" y="56.446"/></svg></svg></g></g></svg></svg>