<svg xmlns="http://www.w3.org/2000/svg" xmlns:xlink="http://www.w3.org/1999/xlink" width="820" height="537.62"><rect width="820" height="537.62" rx="5" ry="5" class="a"/><svg y="0%" x="0%"><circle cx="20" cy="20" r="6" fill="#ff5f58"/><circle cx="40" cy="20" r="6" fill="#ffbd2e"/><circle cx="60" cy="20" r="6" fill="#18c132"/></svg><svg height="477.62" viewBox="0 0 78 47.762" width="780" x="15" xmlns="http://www.w3.org/2000/svg" xmlns:xlink="http://www.w3.org/1999/xlink" y="50"><style>@keyframes k{0%{transform:translateX(0)}4.1%{transform:translateX(-78px)}4.4%{transform:translateX(-156px)}4.7%{transform:translateX(-234px)}5%{transform:translateX(-312px)}5.3%{transform:translateX(-390px)}5.6%{transform:translateX(-468px)}5.9%{transform:translateX(-546px)}6.3%{transform:translateX(-624px)}6.6%{transform:translateX(-702px)}6.9%{transform:translateX(-780px)}7.2%{transform:translateX(-858px)}7.5%{transform:translateX(-936px)}7.8%{transform:translateX(-1014px)}8.1%{transform:translateX(-1092px)}8.4%{transform:translateX(-1170px)}8.7%{transform:translateX(-1248px)}9%{transform:translateX(-1326px)}9.3%{transform:translateX(-1404px)}9.6%{transform:translateX(-1482px)}9.9%{transform:translateX(-1560px)}10.2%{transform:translateX(-1638px)}10.6%{transform:translateX(-1716px)}10.9%{transform:translateX(-1794px)}11.2%{transform:translateX(-1872px)}17.3%{transform:translateX(-1950px)}24.2%{transform:translateX(-2028px)}28.9%{transform:translateX(-2106px)}44%{transform:translateX(-2184px)}54.9%{transform:translateX(-2262px)}57.6%{transform:translateX(-2340px)}61.1%{transform:translateX(-2418px)}63.1%{transform:translateX(-2496px)}69.3%{transform:translateX(-2574px)}75.4%{transform:translateX(-2652px)}78.8%{transform:translateX(-2730px)}83.6%{transform:translateX(-2808px)}87%{transform:translateX(-2886px)}89.8%{transform:translateX(-2964px)}95.2%{transform:translateX(-3042px)}97.3%{transform:translateX(-3120px)}to{transform:translateX(-3198px)}}.a{fill:#282d35}.f{fill:#b9c0cb}.f,.g,.h,.i{white-space:pre}.g{fill:#b9c0cb;font-weight:700}.h,.i{fill:#e88388}.i{fill:#dbab79}</style><g font-family="Monaco,Consolas,Menlo,'Bitstream Vera Sans Mono','Powerline Symbols',monospace" font-size="1.67"><defs><symbol id="1"><text y="1.67" class="f">npx</text></symbol><symbol id="2"><text y="1.67" class="f">npx</text><text x="4.008" y="1.67" class="f">next-leak</text></symbol><symbol id="3"><text y="1.67" class="f">npx</text><text x="4.008" y="1.67" class="f">next-leak</text><text x="14.028" y="1.67" class="f">.</text></symbol><symbol id="4"><text y="1.67" class="f">npx</text><text x="4.008" y="1.67" class="f">next-leak</text><text x="14.028" y="1.67" class="f">.</text><text x="16.032" y="1.67" class="f">--quick</text></symbol><symbol id="5"><text y="1.67" class="f">·</text><text x="2.004" y="1.67" class="f">module</text><text x="9.018" y="1.67" class="f">registry:</text><text x="19.038" y="1.67" class="f">0</text><text x="21.042" y="1.67" class="f">modules</text><text x="29.058" y="1.67" class="f">·</text><text x="31.062" y="1.67" class="f">next</text><text x="36.072" y="1.67" class="f">16.3.0-canary.50</text></symbol><symbol id="6"><text y="1.67" class="f">·</text><text x="2.004" y="1.67" class="f">1</text><text x="4.008" y="1.67" class="f">routes</text><text x="11.022" y="1.67" class="f">discovered</text><text x="22.044" y="1.67" class="f">·</text><text x="24.048" y="1.67" class="f">estimated</text><text x="34.068" y="1.67" class="f">~</text><text x="36.072" y="1.67" class="f">75s</text></symbol><symbol id="7"><text y="1.67" class="f">·</text><text x="2.004" y="1.67" class="f">measuring</text><text x="12.024" y="1.67" class="f">/api/heap</text><text x="22.044" y="1.67" class="f">(1/1)</text><text x="28.056" y="1.67" class="f">as</text><text x="31.062" y="1.67" class="f">/api/heap?timeouts=500</text></symbol><symbol id="8"><text y="1.67" class="f">·</text><text x="2.004" y="1.67" class="f">diffing</text><text x="10.02" y="1.67" class="f">snapshots</text><text x="20.04" y="1.67" class="f">for</text><text x="24.048" y="1.67" class="f">/api/heap</text></symbol><symbol id="9"><text y="1.67" class="g">next-leak</text><text x="10.02" y="1.67" class="g">—</text><text x="12.024" y="1.67" class="g">./my-app</text></symbol><symbol id="10"><text x="2.004" y="1.67" class="h">x</text><text x="4.008" y="1.67" class="h">/api/heap</text><text x="15.03" y="1.67" class="h">leak</text><text x="21.042" y="1.67" class="h">(+3.96</text><text x="28.056" y="1.67" class="h">MB/1000</text><text x="36.072" y="1.67" class="h">req)</text></symbol><symbol id="11"><text x="6.012" y="1.67" class="f">heap</text><text x="11.022" y="1.67" class="f">28.7</text><text x="16.032" y="1.67" class="f">MB</text><text x="19.038" y="1.67" class="f">-&gt;</text><text x="22.044" y="1.67" class="f">35.3</text><text x="27.054" y="1.67" class="f">MB</text><text x="30.06" y="1.67" class="f">-&gt;</text><text x="33.066" y="1.67" class="f">47.8</text><text x="38.076" y="1.67" class="f">MB</text><text x="41.082" y="1.67" class="f">-&gt;</text><text x="44.088" y="1.67" class="f">59.1</text><text x="49.098" y="1.67" class="f">MB</text><text x="52.104" y="1.67" class="f">-&gt;</text><text x="55.11" y="1.67" class="f">59.1</text><text x="60.12" y="1.67" class="f">MB</text></symbol><symbol id="12"><text x="6.012" y="1.67" class="i">!</text><text x="8.016" y="1.67" class="i">low</text><text x="12.024" y="1.67" class="i">confidence:</text><text x="24.048" y="1.67" class="i">one</text><text x="28.056" y="1.67" class="i">cycle</text><text x="34.068" y="1.67" class="i">grew</text><text x="39.078" y="1.67" class="i">12.47</text><text x="45.09" y="1.67" class="i">MB</text><text x="48.096" y="1.67" class="i">and</text><text x="52.104" y="1.67" class="i">another</text><text x="60.12" y="1.67" class="i">0.02</text><text x="65.13" y="1.67" class="i">MB</text><text x="68.136" y="1.67" class="i">—</text></symbol><symbol id="13"><text x="8.016" y="1.67" class="i">measure</text><text x="16.032" y="1.67" class="i">more</text><text x="21.042" y="1.67" class="i">cycles</text><text x="28.056" y="1.67" class="i">before</text><text x="35.07" y="1.67" class="i">quoting</text><text x="43.086" y="1.67" class="i">the</text><text x="47.094" y="1.67" class="i">mean</text></symbol><symbol id="14"><text x="6.012" y="1.67" class="f">&gt;</text><text x="8.016" y="1.67" class="f">grown</text><text x="14.028" y="1.67" class="f">[object]</text><text x="23.046" y="1.67" class="f">Array</text><text x="29.058" y="1.67" class="f">32.7</text><text x="34.068" y="1.67" class="f">MB</text><text x="37.074" y="1.67" class="f">—</text><text x="39.078" y="1.67" class="f">TimeoutsManager#object[.resources]</text></symbol><symbol id="15"><text x="10.02" y="1.67" class="f">&lt;-</text><text x="13.026" y="1.67" class="f">system</text><text x="20.04" y="1.67" class="f">/</text><text x="22.044" y="1.67" class="f">Context#object[.timeoutsManager]</text></symbol><symbol id="16"><text x="10.02" y="1.67" class="f">&lt;-</text><text x="13.026" y="1.67" class="f">webSetIntervalPolyfill#closure[.context]</text></symbol><symbol id="17"><text y="1.67" class="f">snapshots</text><text x="10.02" y="1.67" class="f">and</text><text x="14.028" y="1.67" class="f">run.json:</text><text x="24.048" y="1.67" class="f">./my-app/.next-leak/2026-07-21T15-00-15/</text></symbol><symbol id="a"><path fill="transparent" d="M0 0h78v22H0z"/></symbol></defs><path class="a" d="M0 0h78v47.762H0z"/><g style="animation-duration:14.635s;animation-iteration-count:infinite;animation-name:k;animation-timing-function:steps(1,end)"><svg width="3276"><svg><use xlink:href="#a"/></svg><svg x="78"><use xlink:href="#a"/><text y="1.67" class="f">n</text></svg><svg x="156"><use xlink:href="#a"/><text y="1.67" class="f">np</text></svg><svg x="234"><use xlink:href="#a"/><use xlink:href="#1"/></svg><svg x="312"><use xlink:href="#a"/><use xlink:href="#1"/></svg><svg x="390"><use xlink:href="#a"/><text y="1.67" class="f">npx</text><text x="4.008" y="1.67" class="f">n</text></svg><svg x="468"><use xlink:href="#a"/><text y="1.67" class="f">npx</text><text x="4.008" y="1.67" class="f">ne</text></svg><svg x="546"><use xlink:href="#a"/><text y="1.67" class="f">npx</text><text x="4.008" y="1.67" class="f">nex</text></svg><svg x="624"><use xlink:href="#a"/><text y="1.67" class="f">npx</text><text x="4.008" y="1.67" class="f">next</text></svg><svg x="702"><use xlink:href="#a"/><text y="1.67" class="f">npx</text><text x="4.008" y="1.67" class="f">next-</text></svg><svg x="780"><use xlink:href="#a"/><text y="1.67" class="f">npx</text><text x="4.008" y="1.67" class="f">next-l</text></svg><svg x="858"><use xlink:href="#a"/><text y="1.67" class="f">npx</text><text x="4.008" y="1.67" class="f">next-le</text></svg><svg x="936"><use xlink:href="#a"/><text y="1.67" class="f">npx</text><text x="4.008" y="1.67" class="f">next-lea</text></svg><svg x="1014"><use xlink:href="#a"/><use xlink:href="#2"/></svg><svg x="1092"><use xlink:href="#a"/><use xlink:href="#2"/></svg><svg x="1170"><use xlink:href="#a"/><use xlink:href="#3"/></svg><svg x="1248"><use xlink:href="#a"/><use xlink:href="#3"/></svg><svg x="1326"><use xlink:href="#a"/><text y="1.67" class="f">npx</text><text x="4.008" y="1.67" class="f">next-leak</text><text x="14.028" y="1.67" class="f">.</text><text x="16.032" y="1.67" class="f">-</text></svg><svg x="1404"><use xlink:href="#a"/><text y="1.67" class="f">npx</text><text x="4.008" y="1.67" class="f">next-leak</text><text x="14.028" y="1.67" class="f">.</text><text x="16.032" y="1.67" class="f">--</text></svg><svg x="1482"><use xlink:href="#a"/><text y="1.67" class="f">npx</text><text x="4.008" y="1.67" class="f">next-leak</text><text x="14.028" y="1.67" class="f">.</text><text x="16.032" y="1.67" class="f">--q</text></svg><svg x="1560"><use xlink:href="#a"/><text y="1.67" class="f">npx</text><text x="4.008" y="1.67" class="f">next-leak</text><text x="14.028" y="1.67" class="f">.</text><text x="16.032" y="1.67" class="f">--qu</text></svg><svg x="1638"><use xlink:href="#a"/><text y="1.67" class="f">npx</text><text x="4.008" y="1.67" class="f">next-leak</text><text x="14.028" y="1.67" class="f">.</text><text x="16.032" y="1.67" class="f">--qui</text></svg><svg x="1716"><use xlink:href="#a"/><text y="1.67" class="f">npx</text><text x="4.008" y="1.67" class="f">next-leak</text><text x="14.028" y="1.67" class="f">.</text><text x="16.032" y="1.67" class="f">--quic</text></svg><svg x="1794"><use xlink:href="#a"/><use xlink:href="#4"/></svg><svg x="1872"><use xlink:href="#a"/><use xlink:href="#4"/></svg><svg x="1950"><use xlink:href="#a"/><use xlink:href="#4"/><use xlink:href="#5" y="2.171"/></svg><svg x="2028"><use xlink:href="#a"/><use xlink:href="#4"/><use xlink:href="#5" y="2.171"/><use xlink:href="#6" y="4.342"/></svg><svg x="2106"><use xlink:href="#a"/><use xlink:href="#4"/><use xlink:href="#5" y="2.171"/><use xlink:href="#6" y="4.342"/><use xlink:href="#7" y="6.513"/></svg><svg x="2184"><use xlink:href="#a"/><use xlink:href="#4"/><use xlink:href="#5" y="2.171"/><use xlink:href="#6" y="4.342"/><use xlink:href="#7" y="6.513"/><use xlink:href="#8" y="8.684"/></svg><svg x="2262"><use xlink:href="#a"/><use xlink:href="#4"/><use xlink:href="#5" y="2.171"/><use xlink:href="#6" y="4.342"/><use xlink:href="#7" y="6.513"/><use xlink:href="#8" y="8.684"/></svg><svg x="2340"><use xlink:href="#a"/><use xlink:href="#4"/><use xlink:href="#5" y="2.171"/><use xlink:href="#6" y="4.342"/><use xlink:href="#7" y="6.513"/><use xlink:href="#8" y="8.684"/><use xlink:href="#9" y="13.026"/></svg><svg x="2418"><use xlink:href="#a"/><use xlink:href="#4"/><use xlink:href="#5" y="2.171"/><use xlink:href="#6" y="4.342"/><use xlink:href="#7" y="6.513"/><use xlink:href="#8" y="8.684"/><use xlink:href="#9" y="13.026"/></svg><svg x="2496"><use xlink:href="#a"/><use xlink:href="#4"/><use xlink:href="#5" y="2.171"/><use xlink:href="#6" y="4.342"/><use xlink:href="#7" y="6.513"/><use xlink:href="#8" y="8.684"/><use xlink:href="#9" y="13.026"/><use xlink:href="#10" y="17.368"/></svg><svg x="2574"><use xlink:href="#a"/><use xlink:href="#4"/><use xlink:href="#5" y="2.171"/><use xlink:href="#6" y="4.342"/><use xlink:href="#7" y="6.513"/><use xlink:href="#8" y="8.684"/><use xlink:href="#9" y="13.026"/><use xlink:href="#10" y="17.368"/><use xlink:href="#11" y="19.539"/></svg><svg x="2652"><use xlink:href="#a"/><use xlink:href="#4"/><use xlink:href="#5" y="2.171"/><use xlink:href="#6" y="4.342"/><use xlink:href="#7" y="6.513"/><use xlink:href="#8" y="8.684"/><use xlink:href="#9" y="13.026"/><use xlink:href="#10" y="17.368"/><use xlink:href="#11" y="19.539"/><use xlink:href="#12" y="21.71"/></svg><svg x="2730"><use xlink:href="#a"/><use xlink:href="#4"/><use xlink:href="#5" y="2.171"/><use xlink:href="#6" y="4.342"/><use xlink:href="#7" y="6.513"/><use xlink:href="#8" y="8.684"/><use xlink:href="#9" y="13.026"/><use xlink:href="#10" y="17.368"/><use xlink:href="#11" y="19.539"/><use xlink:href="#12" y="21.71"/><use xlink:href="#13" y="23.881"/></svg><svg x="2808"><use xlink:href="#a"/><use xlink:href="#4"/><use xlink:href="#5" y="2.171"/><use xlink:href="#6" y="4.342"/><use xlink:href="#7" y="6.513"/><use xlink:href="#8" y="8.684"/><use xlink:href="#9" y="13.026"/><use xlink:href="#10" y="17.368"/><use xlink:href="#11" y="19.539"/><use xlink:href="#12" y="21.71"/><use xlink:href="#13" y="23.881"/><use xlink:href="#14" y="26.052"/></svg><svg x="2886"><use xlink:href="#a"/><use xlink:href="#4"/><use xlink:href="#5" y="2.171"/><use xlink:href="#6" y="4.342"/><use xlink:href="#7" y="6.513"/><use xlink:href="#8" y="8.684"/><use xlink:href="#9" y="13.026"/><use xlink:href="#10" y="17.368"/><use xlink:href="#11" y="19.539"/><use xlink:href="#12" y="21.71"/><use xlink:href="#13" y="23.881"/><use xlink:href="#14" y="26.052"/><use xlink:href="#15" y="28.223"/></svg><svg x="2964"><use xlink:href="#a"/><use xlink:href="#4"/><use xlink:href="#5" y="2.171"/><use xlink:href="#6" y="4.342"/><use xlink:href="#7" y="6.513"/><use xlink:href="#8" y="8.684"/><use xlink:href="#9" y="13.026"/><use xlink:href="#10" y="17.368"/><use xlink:href="#11" y="19.539"/><use xlink:href="#12" y="21.71"/><use xlink:href="#13" y="23.881"/><use xlink:href="#14" y="26.052"/><use xlink:href="#15" y="28.223"/><use xlink:href="#16" y="30.394"/></svg><svg x="3042"><use xlink:href="#a"/><use xlink:href="#4"/><use xlink:href="#5" y="2.171"/><use xlink:href="#6" y="4.342"/><use xlink:href="#7" y="6.513"/><use xlink:href="#8" y="8.684"/><use xlink:href="#9" y="13.026"/><use xlink:href="#10" y="17.368"/><use xlink:href="#11" y="19.539"/><use xlink:href="#12" y="21.71"/><use xlink:href="#13" y="23.881"/><use xlink:href="#14" y="26.052"/><use xlink:href="#15" y="28.223"/><use xlink:href="#16" y="30.394"/></svg><svg x="3120"><use xlink:href="#a"/><use xlink:href="#4"/><use xlink:href="#5" y="2.171"/><use xlink:href="#6" y="4.342"/><use xlink:href="#7" y="6.513"/><use xlink:href="#8" y="8.684"/><use xlink:href="#9" y="13.026"/><use xlink:href="#10" y="17.368"/><use xlink:href="#11" y="19.539"/><use xlink:href="#12" y="21.71"/><use xlink:href="#13" y="23.881"/><use xlink:href="#14" y="26.052"/><use xlink:href="#15" y="28.223"/><use xlink:href="#16" y="30.394"/><use xlink:href="#17" y="34.736"/></svg><svg x="3198"><use xlink:href="#a"/><use xlink:href="#4"/><use xlink:href="#5" y="2.171"/><use xlink:href="#6" y="4.342"/><use xlink:href="#7" y="6.513"/><use xlink:href="#8" y="8.684"/><use xlink:href="#9" y="13.026"/><use xlink:href="#10" y="17.368"/><use xlink:href="#11" y="19.539"/><use xlink:href="#12" y="21.71"/><use xlink:href="#13" y="23.881"/><use xlink:href="#14" y="26.052"/><use xlink:href="#15" y="28.223"/><use xlink:href="#16" y="30.394"/><use xlink:href="#17" y="34.736"/><text y="38.577" class="f">report:</text><text x="8.016" y="38.577" class="f">./my-app/.next-leak/2026-07-21T15-00-15/report.html</text></svg></svg></g></g></svg></svg>